<svg width="74" height="48" fill="none" xmlns="http://www.w3.org/2000/svg"><g clip-path="url(#a)"><path d="M30.12 21.61c-.479.134-.745.477-.799 1.03l-.958 9.93c-.054.556.159.766.637.63s.744-.48.797-1.03l.958-9.93a.661.661 0 0 0-.137-.544.476.476 0 0 0-.498-.086Z" fill="url(#b)"/><path d="M46.335 17.005c-.39.109-.611.426-.663.952l-1.017 10.477c-.05.526.12.735.51.625.197-.069.37-.192.5-.355a1.53 1.53 0 0 0 .425-.886l.968-9.972c.032-.324-.019-.562-.152-.715-.133-.153-.324-.195-.571-.127Z" fill="url(#c)"/><path d="M73.633 21.95a1.061 1.061 0 0 0-.921-.216l1.011-10.422c.125-1.278-.121-2.407-.734-3.354-.397-.615-1.823-2.909-5.162-3.936a7.537 7.537 0 0 0-1.549-.155 11.75 11.75 0 0 0-3.123.474 13.236 13.236 0 0 0-5.316 2.88l.386-3.97a1.093 1.093 0 0 0-.359-.956C57.666 2.13 55.336 0 54.855 0a2.101 2.101 0 0 0-.57.082l-5.78 1.614a2.06 2.06 0 0 0-1.025.659 2.105 2.105 0 0 0-.48 1.13l-.572 5.893a4.174 4.174 0 0 0-.506-.03 5.875 5.875 0 0 0-1.564.234 7.939 7.939 0 0 0-3.062 1.708c-.958.833-1.793 2.022-2.494 3.546a11.51 11.51 0 0 0-.318.77c-.035-.062-.067-.127-.105-.186-.748-1.185-1.885-1.945-3.383-2.254a7.56 7.56 0 0 0-1.53-.152c-1.044.016-2.08.172-3.083.466a14.405 14.405 0 0 0-4.55 2.156 12.234 12.234 0 0 0-3.296 3.472 10.248 10.248 0 0 0-1.162 2.592 8.845 8.845 0 0 0-1.498-1.388c-.096-.125-.19-.253-.293-.372a9.123 9.123 0 0 0-2.104-1.858c-.212-.146-.41-.29-.608-.428.198.041.403.035.598-.02l.041-.012 6.824-2.282c.349-.104 1.107-.465 1.224-1.656.18-1.842.105-3.543-.218-5.055-.331-1.548-.9-2.868-1.694-3.92-.464-.615-2.295-3.097-5.403-4.274a7.369 7.369 0 0 0-2.067-.29c-.878.01-1.75.14-2.594.384-2.14.597-4.088 1.797-5.79 3.568a20.677 20.677 0 0 0-3.983 5.97c-.998 2.245-1.61 4.472-1.819 6.623a16.18 16.18 0 0 0 .137 4.279A13.656 13.656 0 0 0 3.4 24.857a10.145 10.145 0 0 0 2.465 3.16l.052.042c.247.192.512.405.794.639l-4.956 1.7c-.43.122-.813.375-1.096.725-.283.35-.453.78-.486 1.232-.234 2.415-.232 4.608 0 6.519.258 2.008.785 3.688 1.562 4.993 1.903 2.791 5.559 3.666 6.034 3.825.65.21 1.329.315 2.011.308a10.225 10.225 0 0 0 2.731-.417c2.04-.569 3.906-1.727 5.547-3.443a18.951 18.951 0 0 0 3.012-4.218c.332.392.72.73 1.152 1.004.723.463 3.108 1.682 5.768 1.805.977-.014 1.947-.16 2.885-.436a13.742 13.742 0 0 0 4.374-2.083 11.761 11.761 0 0 0 3.085-3.234c.673.556 2.665 1.626 4.765 1.732a5.38 5.38 0 0 0 1.44-.215 7.17 7.17 0 0 0 2.855-1.528c.241.278.608.556 1.095.417l5.614-1.564a1.39 1.39 0 0 0 .738-.443c.194-.222.314-.501.343-.797l.162-1.657c.496.209 1.968 1.193 4.081 1.24a4.769 4.769 0 0 0 1.284-.184 6.755 6.755 0 0 0 3.634-2.5c.383.359.85.613 1.357.738.625.154 1.463.079 2.558-.225a6.683 6.683 0 0 0 2.623-1.482 9.406 9.406 0 0 0 1.958-2.402c.52-.916.822-1.782.898-2.58l.254-2.608a1.1 1.1 0 0 0-.359-.97Zm-52.931 6.873a25.424 25.424 0 0 1-1.824 7.347c-.966 2.324-2.217 4.29-3.755 5.9-1.538 1.608-3.256 2.677-5.154 3.207-1.666.463-3.08.501-4.244.115a4.808 4.808 0 0 1-1.773-1.055l-.01-.009a5.325 5.325 0 0 1-.325-.334l-.036-.04a6.104 6.104 0 0 1-.273-.34l-.054-.067a6.045 6.045 0 0 1-.289-.44c-.68-1.134-1.132-2.607-1.358-4.418-.225-1.81-.225-3.874 0-6.19a.75.75 0 0 1 .171-.446.731.731 0 0 1 .404-.247l6.195-2.14a.473.473 0 0 1 .117-.018h.008c.021 0 .042.003.063.008h.012a.24.24 0 0 1 .073.033l.017.016a.27.27 0 0 1 .043.041c0 .009.012.018.019.028.01.017.02.034.029.053 0 .01.01.025.015.037a.681.681 0 0 1 .02.068c0 .014.007.03.01.045s.01.06.012.091c.003.032 0 .03 0 .045v.158c0 .196 0 .385.011.57.01.886.141 1.766.39 2.616.264.827.65 1.17 1.157 1.029.681-.19 1.081-.896 1.2-2.12a1.84 1.84 0 0 0-.304-1.121 7.311 7.311 0 0 0-.94-1.211c-.383-.407-.93-.921-1.642-1.544a52.834 52.834 0 0 0-1.902-1.597 8.654 8.654 0 0 1-2.104-2.711 12.12 12.12 0 0 1-1.134-3.472 14.626 14.626 0 0 1-.119-3.888c.194-2 .76-4.055 1.698-6.163a19.126 19.126 0 0 1 3.696-5.546c1.53-1.584 3.244-2.64 5.141-3.169.188-.053.372-.097.555-.139.06-.014.119-.022.179-.034a8.06 8.06 0 0 1 .36-.066c.071-.01.137-.018.21-.026.105-.014.212-.027.316-.035.074 0 .145-.008.217-.012.099 0 .197-.01.295-.011h.448c.093 0 .181.013.275.023.058 0 .117.01.175.018.097.013.194.03.29.047.048.009.096.016.137.025a5.746 5.746 0 0 1 .893.267l.019.008a5.266 5.266 0 0 1 2.312 1.764c.721.959 1.232 2.155 1.534 3.587.3 1.432.368 3.026.2 4.782-.048.5-.253.8-.615.902l-6.846 2.287c-.274.077-.435-.077-.483-.46-.131-1.336-.502-1.919-1.11-1.748-.45.125-.71.549-.78 1.272-.08.833.229 1.612.926 2.337.697.725 1.774 1.587 3.231 2.585.676.429 1.28.963 1.792 1.582a8.75 8.75 0 0 1 1.387 2.262c.358.845.612 1.731.759 2.639.15 1 .172 2.017.063 3.023Zm17.061-9.349-1.149 11.833a8.445 8.445 0 0 1-1.274 3.662 10.82 10.82 0 0 1-2.91 3.08 12.822 12.822 0 0 1-4.108 1.944c-2.26.63-4.04.53-5.34-.301-1.298-.832-1.856-2.205-1.672-4.119l1.17-12.055c.036-.362.098-.72.183-1.073v-.011a7.79 7.79 0 0 1 .114-.417l.012-.036c.04-.13.083-.261.13-.39.009-.025.02-.049.028-.073.044-.117.089-.236.137-.352l.056-.125c.044-.1.089-.2.137-.3a6.94 6.94 0 0 1 .107-.206c.035-.066.074-.145.115-.22.078-.142.162-.284.25-.425a10.739 10.739 0 0 1 2.908-3.055 12.911 12.911 0 0 1 4.1-1.945c.224-.062.441-.115.656-.163l.193-.04c.153-.032.303-.06.45-.085l.198-.032c.163-.024.324-.042.48-.057l.118-.013c.193-.015.38-.022.564-.023h.13c.156 0 .31.007.459.022l.155.014a4.724 4.724 0 0 1 1.121.244l.108.038c.093.034.18.073.274.114l.03.013c.091.046.183.092.274.14a3.37 3.37 0 0 1 1.186 1.134c.536.85.74 1.943.61 3.278Zm13.798 14.041-5.614 1.564c-.072.02-.204-.11-.395-.392-.192-.281-.31-.416-.352-.404a3.041 3.041 0 0 0-.548.429 6.246 6.246 0 0 1-2.658 1.47c-3.171.884-4.486-1.451-3.946-7.007l.849-8.738c.192-1.982.597-3.643 1.213-4.983.616-1.34 1.325-2.358 2.126-3.055a6.488 6.488 0 0 1 2.505-1.406c.12-.034.239-.062.352-.087l.108-.02c.077-.014.154-.028.228-.038l.117-.014a3.65 3.65 0 0 1 .202-.016h.255c.07 0 .138 0 .207.012l.126.017c.066.01.129.023.19.039.036.01.074.018.11.029.063.02.125.044.186.07.029.013.06.023.086.037.086.04.169.086.247.139.042.03.082.056.12.079l.036.02a.854.854 0 0 0 .07.034l.035.012a.408.408 0 0 0 .055.016h.03a.222.222 0 0 0 .063 0c.087-.024.14-.144.162-.36l.713-7.342a.597.597 0 0 1 .137-.314.598.598 0 0 1 .316-.205l5.782-1.612a.733.733 0 0 1 .171-.03h.015a.24.24 0 0 1 .105.023c.008.004.015.01.022.015.02.014.036.032.047.054a.17.17 0 0 1 .012.027c.012.039.016.08.011.12l-.087.908-2.962 30.43c-.023.242-.173.402-.447.479Zm19.004-9.532c-.066.674-.328 1.415-.787 2.222a8.496 8.496 0 0 1-1.78 2.179 5.803 5.803 0 0 1-2.284 1.3c-.942.263-1.65.336-2.125.22a2.314 2.314 0 0 1-1.242-.816c-.166-.19-.3-.272-.4-.243-.117.032-.296.214-.54.544a5.905 5.905 0 0 1-3.245 2.283c-1.13.316-2.138.138-3.024-.533-.886-.671-1.238-1.944-1.057-3.819l.3-3.095c.266-2.738 2.062-5.2 5.39-7.388.845-.531 1.66-1.11 2.441-1.734.5-.421.828-.795.987-1.122.183-.41.293-.849.325-1.297.059-.606-.136-.847-.585-.722-.348.092-.565.265-.653.516-.087.252-.179.882-.274 1.889-.02.216-.162.36-.423.433l-5.905 1.372c-.116.032-.185.013-.205-.06a2.152 2.152 0 0 1-.012-.529c.013-.277.055-.787.127-1.527.106-1.092.503-2.203 1.191-3.333a10.109 10.109 0 0 1 1.26-1.652l.04-.043c.124-.132.252-.261.384-.388l.119-.112c.114-.107.231-.212.35-.316l.137-.112c.16-.139.324-.267.495-.396a11.758 11.758 0 0 1 3.985-1.944c.228-.064.45-.118.667-.167l.197-.041c.154-.033.306-.06.456-.085l.204-.032c.164-.023.326-.043.484-.057l.122-.012a8.04 8.04 0 0 1 .571-.024h.04c.122 0 .241 0 .358.01h.076c.113.007.224.017.333.03l.107.014a5.11 5.11 0 0 1 .751.157c.082.024.159.05.237.077l.096.032c.098.036.192.075.283.116l.02.009c.098.044.193.093.283.138.452.252.836.612 1.118 1.049.502.778.701 1.707.596 2.785l-1.096 11.348c-.015.162.034.244.146.245.316-.04.627-.111.93-.21.216-.06.314.018.294.233l-.263 2.608Z" fill="url(#d)"/><path d="M62.567 19.638c-.19.052-.44.238-.752.555-.3.292-.488.683-.53 1.103l-.297 3.055c-.048.499.167.682.645.548.191-.059.365-.164.507-.308a.985.985 0 0 0 .283-.64l.393-4.045c.022-.19-.061-.28-.25-.268Z" fill="url(#e)"/></g><defs><linearGradient id="b" x1="29.561" y1="21.574" x2="29.561" y2="33.24" gradientUnits="userSpaceOnUse"><stop stop-color="#F7C7DF"/><stop offset="1" stop-color="#287C6E"/></linearGradient><linearGradient id="c" x1="45.857" y1="16.973" x2="45.857" y2="29.087" gradientUnits="userSpaceOnUse"><stop stop-color="#F7C7DF"/><stop offset="1" stop-color="#287C6E"/></linearGradient><linearGradient id="d" x1="37" y1="0" x2="37" y2="48" gradientUnits="userSpaceOnUse"><stop stop-color="#F7C7DF"/><stop offset="1" stop-color="#287C6E"/></linearGradient><linearGradient id="e" x1="61.901" y1="19.637" x2="61.901" y2="24.942" gradientUnits="userSpaceOnUse"><stop stop-color="#F7C7DF"/><stop offset="1" stop-color="#287C6E"/></linearGradient><clipPath id="a"><path fill="#fff" d="M0 0h74v48H0z"/></clipPath></defs></svg>